<?xml version="1.0" encoding="UTF-8"?>
<svg version="1.1" xmlns="http://www.w3.org/2000/svg" width="1024" height="1024">
<path d="M0 0 C1.83158875 1.8142395 1.83158875 1.8142395 2.29293823 4.2666626 C2.06521751 11.99975147 1.15728478 19.43987882 -0.18013 27.056427 C-0.39023209 28.30006012 -0.60033417 29.54369324 -0.81680298 30.82501221 C-1.37504686 34.1190563 -1.94161177 37.41143323 -2.5125885 40.70327759 C-3.07320002 43.94615364 -3.62325659 47.19081482 -4.17427063 50.43533325 C-4.83169201 54.30534099 -5.49149195 58.17484282 -6.16007996 62.04293823 C-7.32538477 68.79122781 -8.45013864 75.54201869 -9.51069641 82.30740356 C-9.83918069 84.37514783 -10.16852106 86.44275393 -10.49813271 88.51031876 C-10.80596557 90.46524422 -11.1016728 92.42206682 -11.39709473 94.37890625 C-11.67992058 96.14924728 -11.67992058 96.14924728 -11.96846008 97.95535278 C-12.12840958 98.99313873 -12.28835907 100.03092468 -12.45315552 101.10015869 C-13.22209522 104.01794655 -14.08102612 105.64827732 -16.16841125 107.8142395 C-19.83676295 108.43981107 -21.58412755 108.16901446 -24.77388 106.23220825 C-25.62595032 105.49615356 -26.47802063 104.76009888 -27.35591125 104.0017395 C-28.30079407 103.18963013 -29.24567688 102.37752075 -30.2191925 101.540802 C-34.21925591 97.91212551 -37.95812801 94.0284356 -41.66059875 90.09939575 C-44.16592311 87.81650674 -46.03499984 86.96045824 -49.16841125 85.8142395 C-53.0311742 89.65207644 -56.89048208 93.49334437 -60.7467804 97.337677 C-62.056083 98.64198534 -63.36628595 99.94539058 -64.67744446 101.24783325 C-66.57401074 103.13211701 -68.46719488 105.01974561 -70.3598175 106.9079895 C-70.93615433 107.47916504 -71.51249115 108.05034058 -72.10629272 108.63882446 C-75.03657349 111.56871004 -77.8428433 114.55460901 -80.54707336 117.69509888 C-84.46273273 122.22038856 -88.66588958 126.41986286 -92.91841125 130.6267395 C-93.73535461 131.43989624 -94.55229797 132.25305298 -95.39399719 133.09085083 C-98.85536168 136.5360129 -102.32269716 139.9751424 -105.789505 143.41482544 C-108.33456313 145.94170458 -110.87654257 148.47165265 -113.41841125 151.0017395 C-114.19152649 151.7665564 -114.96464172 152.53137329 -115.76118469 153.31936646 C-119.81450347 157.35453473 -123.66926634 161.48025391 -127.40104675 165.81311035 C-130.62957348 169.4686658 -134.07837785 172.90738616 -137.5160675 176.36502075 C-138.29099045 177.14564377 -139.06591339 177.92626678 -139.86431885 178.73054504 C-141.49074367 180.36635098 -143.11857607 182.00075853 -144.74775696 183.63381958 C-147.23440494 186.13024692 -149.71018291 188.63714392 -152.18598938 191.14431763 C-153.77452278 192.73937556 -155.36369359 194.33379899 -156.9535675 195.92752075 C-157.68809647 196.67439651 -158.42262543 197.42127228 -159.17941284 198.19078064 C-164.60914789 203.59716013 -168.94469041 207.11075261 -176.945755 207.212677 C-183.6939031 206.0029914 -189.38822165 201.96483669 -195.04341125 198.3142395 C-195.87058655 197.78596558 -196.69776184 197.25769165 -197.55000305 196.71340942 C-200.0934403 195.08643436 -202.63166991 193.45163134 -205.16841125 191.8142395 C-205.93137512 191.32262329 -206.69433899 190.83100708 -207.48042297 190.32449341 C-211.03127495 188.03526219 -214.57823249 185.74013529 -218.12153625 183.4392395 C-222.15047981 180.82334571 -226.18917442 178.22281209 -230.23091125 175.6267395 C-230.83330627 175.23977905 -231.43570129 174.8528186 -232.05635071 174.45413208 C-233.42689823 173.5739509 -234.7976313 172.69405865 -236.16841125 171.8142395 C-240.57802206 175.41392179 -244.40344532 179.08049852 -248.08638 183.41189575 C-250.71342829 186.44310532 -253.43796864 189.37631517 -256.16841125 192.3142395 C-259.34099048 195.73358027 -262.50103161 199.1526662 -265.54341125 202.6892395 C-268.97775692 206.66495985 -272.57546699 210.48254281 -276.16841125 214.3142395 C-280.3673732 218.7930958 -284.53105419 223.2839229 -288.539505 227.93533325 C-291.26787347 231.08244412 -294.06916522 234.16381009 -296.8598175 237.25564575 C-298.34960406 238.90676283 -299.83678003 240.56024094 -301.320755 242.21658325 C-305.60440551 246.99599078 -309.93161071 251.73130723 -314.29341125 256.4392395 C-318.02976046 260.47282469 -321.71268154 264.53799688 -325.30513 268.70095825 C-328.31677395 272.11668021 -331.42060468 275.44885762 -334.52607727 278.77932739 C-337.15068747 281.57728295 -337.15068747 281.57728295 -339.16841125 284.8142395 C-339.82841125 284.8142395 -340.48841125 284.8142395 -341.16841125 284.8142395 C-341.56479797 285.70369263 -341.56479797 285.70369263 -341.9691925 286.6111145 C-343.21211551 288.89453005 -344.47242771 290.28850674 -346.35591125 292.0642395 C-349.46834931 295.08720295 -352.32783602 298.23755252 -355.16059875 301.52127075 C-357.57914091 304.28330236 -360.05748099 306.98806979 -362.54341125 309.6892395 C-370.11166243 317.92531532 -377.54789737 326.2436321 -384.78608704 334.77151489 C-388.13964775 338.69332083 -391.64487267 342.35926667 -395.36372375 345.9392395 C-397.39181079 348.04634292 -399.10657969 350.28428694 -400.85591125 352.6267395 C-404.4334566 357.30816708 -407.0219955 359.25913198 -412.79341125 360.7517395 C-421.59360702 361.57572883 -431.25743697 355.58015016 -439.12934875 352.118927 C-440.12294403 351.68540924 -441.11653931 351.25189148 -442.14024353 350.80523682 C-445.27601862 349.43638319 -448.40978701 348.06300878 -451.54341125 346.6892395 C-454.69885186 345.30924602 -457.85470385 343.93020017 -461.010849 342.55181885 C-462.96461327 341.69819848 -464.91790317 340.84349131 -466.87065125 339.98754883 C-467.75572357 339.60019562 -468.6407959 339.21284241 -469.5526886 338.81375122 C-470.32559235 338.47495941 -471.09849609 338.1361676 -471.89482117 337.78710938 C-476.40076383 335.62067497 -476.40076383 335.62067497 -481.2191925 334.88064575 C-484.07542414 336.2486605 -485.43205705 338.25318204 -487.35591125 340.7517395 C-490.35502593 344.55585386 -493.3951656 348.24290493 -496.66841125 351.8142395 C-502.20173893 357.89608835 -507.38906172 364.24693005 -512.44184875 370.73220825 C-513.15598938 371.64615356 -513.87013 372.56009888 -514.60591125 373.5017395 C-515.24399719 374.33060669 -515.88208313 375.15947388 -516.539505 376.01345825 C-517.07704407 376.60771606 -517.61458313 377.20197388 -518.16841125 377.8142395 C-518.82841125 377.8142395 -519.48841125 377.8142395 -520.16841125 377.8142395 C-520.44225647 378.40648315 -520.71610168 378.99872681 -520.99824524 379.60891724 C-522.12658839 381.73541915 -523.2992082 383.30529313 -524.8910675 385.09939575 C-525.69169617 386.01023926 -525.69169617 386.01023926 -526.50849915 386.93948364 C-527.07689514 387.57877808 -527.64529114 388.21807251 -528.23091125 388.8767395 C-529.41960248 390.22986063 -530.60709808 391.584033 -531.79341125 392.9392395 C-532.37348938 393.60181763 -532.9535675 394.26439575 -533.55122375 394.947052 C-535.66155025 397.38361254 -537.70283439 399.87146808 -539.73091125 402.3767395 C-543.23078277 406.68377696 -546.77013806 410.95361744 -550.35591125 415.1892395 C-551.08693054 416.06431152 -551.08693054 416.06431152 -551.8327179 416.95706177 C-560.55060609 427.19906662 -560.55060609 427.19906662 -566.16841125 427.8142395 C-566.8541925 427.89287231 -567.53997375 427.97150513 -568.24653625 428.05252075 C-574.00443713 428.24928355 -578.55841918 427.43996311 -583.16841125 423.8142395 C-587.71392747 418.20847881 -589.65326931 413.08711032 -589.16841125 405.8142395 C-587.30135816 400.61316304 -584.85734631 396.81538168 -581.16841125 392.6892395 C-580.18123047 391.55399813 -579.19425725 390.41857623 -578.20747375 389.2829895 C-577.70377258 388.70935669 -577.20007141 388.13572388 -576.68110657 387.54470825 C-574.2700056 384.78649591 -571.90698353 381.98817368 -569.54341125 379.1892395 C-569.08442444 378.64759155 -568.62543762 378.1059436 -568.15254211 377.54788208 C-565.3087612 374.18649759 -562.50767853 370.79391437 -559.73091125 367.3767395 C-555.77332938 362.51294925 -551.70298679 357.75542719 -547.61006165 353.00588989 C-544.57895836 349.48125031 -541.59855809 345.92384068 -538.66841125 342.3142395 C-534.7339787 337.46747476 -530.68286551 332.73144695 -526.60762024 328.00344849 C-523.59596116 324.50188649 -520.63782175 320.96637394 -517.73091125 317.3767395 C-514.04095297 312.84509366 -510.28423256 308.37581946 -506.48091125 303.9392395 C-505.6785907 302.99286621 -505.6785907 302.99286621 -504.86006165 302.02737427 C-495.55394481 291.23573345 -495.55394481 291.23573345 -490.34272766 290.58694458 C-483.98050939 290.39682719 -479.31064881 291.94227587 -473.54341125 294.5017395 C-472.62479309 294.8931311 -471.70617493 295.28452271 -470.75971985 295.68777466 C-468.70907083 296.56182728 -466.66119598 297.44240814 -464.61567688 298.32839966 C-458.71555053 300.87147111 -452.78524706 303.3425677 -446.85865784 305.82318115 C-444.83089221 306.67352191 -442.80483524 307.52780875 -440.7792511 308.3833313 C-434.61727914 310.98231138 -428.4577108 313.53735384 -422.16841125 315.8142395 C-420.47970352 313.98200688 -418.79243948 312.14847673 -417.10591125 310.3142395 C-416.63991516 309.808927 -416.17391907 309.3036145 -415.69380188 308.7829895 C-413.00840988 305.86011385 -410.36820796 302.90532683 -407.7660675 299.9079895 C-403.56412655 295.08731894 -399.17099966 290.45614726 -394.77388 285.8142395 C-391.0293685 281.84490225 -387.38441049 277.80980555 -383.80708313 273.6892395 C-381.47400399 271.0196853 -379.07439224 268.4183601 -376.66841125 265.8142395 C-373.6287213 262.51471173 -370.60683066 259.20472343 -367.66841125 255.8142395 C-364.72997061 252.42373106 -361.70724823 249.11456968 -358.66841125 245.8142395 C-355.02673236 241.85834767 -351.43341626 237.86862326 -347.91059875 233.806427 C-345.0901437 230.58124297 -342.20806403 227.4117445 -339.33638 224.23220825 C-337.52793568 222.2152226 -335.74853786 220.17932354 -333.98091125 218.1267395 C-329.87680308 213.40749567 -325.57066927 208.87668977 -321.29389954 204.31472778 C-317.72584033 200.50224172 -314.21294476 196.65814364 -310.80513 192.70095825 C-308.78967353 190.37765163 -306.72992663 188.09675485 -304.66841125 185.8142395 C-302.03660681 182.89935021 -299.425542 179.97150739 -296.85591125 177.0017395 C-293.1846677 172.7828046 -289.37597399 168.69483839 -285.57368469 164.59451294 C-282.31756129 161.07708308 -279.13022093 157.51226181 -275.99263 153.88845825 C-272.74950368 150.20087779 -269.41207916 146.5993244 -266.08247375 142.99002075 C-264.09931168 140.83769482 -262.13867905 138.66743898 -260.19184875 136.48220825 C-259.70619446 135.94112427 -259.22054016 135.40004028 -258.72016907 134.84255981 C-257.36832756 133.33527041 -256.02210697 131.82294529 -254.67622375 130.31033325 C-250.66026539 126.31314104 -247.32166795 124.35881133 -241.60591125 124.17752075 C-234.05353145 124.38641145 -229.20528513 127.75936539 -223.16841125 132.0017395 C-222.09405823 132.7233728 -221.0197052 133.4450061 -219.91279602 134.18850708 C-217.71507487 135.66529642 -215.52432398 137.15251322 -213.34077454 138.650177 C-208.64920644 141.85058177 -203.87784036 144.92311946 -199.10591125 148.0017395 C-197.55222386 149.0155998 -195.99882177 150.02989751 -194.445755 151.04470825 C-193.37623596 151.73185913 -193.37623596 151.73185913 -192.28511047 152.43289185 C-190.83195918 153.38121134 -189.39663748 154.35725038 -187.97749329 155.35574341 C-187.27866028 155.83317993 -186.57982727 156.31061646 -185.8598175 156.80252075 C-185.24437073 157.23733765 -184.62892395 157.67215454 -183.99482727 158.12014771 C-182.13345868 159.05239669 -182.13345868 159.05239669 -180.09712219 158.08499146 C-177.33515954 156.26524265 -175.17484562 154.04425347 -172.85591125 151.6892395 C-171.95227844 150.77916138 -171.04864563 149.86908325 -170.11763 148.931427 C-168.06479173 146.80382783 -166.13148935 144.60740452 -164.2191925 142.353302 C-157.80946624 134.96656347 -150.64923139 128.24311168 -143.70210266 121.36843872 C-134.5149188 112.31188615 -134.5149188 112.31188615 -125.87348938 102.74197388 C-121.17427033 97.42911111 -115.95532153 92.5688031 -110.9066925 87.59158325 C-106.39816203 83.12208767 -102.04872599 78.61402084 -97.9198761 73.79275513 C-94.53145984 69.96508223 -90.86440782 66.4072601 -87.23091125 62.8142395 C-86.06205383 61.65214966 -86.06205383 61.65214966 -84.86958313 60.46658325 C-82.97148705 58.58013193 -81.07107977 56.69607705 -79.16841125 54.8142395 C-81.05293799 50.6604077 -83.87613241 48.06420429 -87.23091125 45.0642395 C-87.81002258 44.53419312 -88.38913391 44.00414673 -88.98579407 43.45803833 C-91.60660902 41.06891966 -94.2498403 38.74745192 -96.99263 36.49783325 C-102.87260525 31.65939952 -102.87260525 31.65939952 -104.48091125 27.0642395 C-104.16841125 23.8142395 -104.16841125 23.8142395 -102.54048157 21.73074341 C-99.6790331 19.41884855 -97.4747804 18.77257375 -93.90278625 17.900177 C-93.25920166 17.74012177 -92.61561707 17.58006653 -91.95252991 17.41516113 C-89.69531602 16.86225459 -87.43301413 16.33604108 -85.16841125 15.8142395 C-84.30481995 15.61334717 -83.44122864 15.41245483 -82.5514679 15.20547485 C-75.5161819 13.57575685 -68.46844179 12.00371896 -61.41841125 10.4392395 C-59.22712852 9.95137863 -57.03588525 9.46334049 -54.84468079 8.97512817 C-51.5985448 8.25198714 -48.35234237 7.52915772 -45.1058197 6.80775452 C-39.13488663 5.48006661 -33.16856571 4.13460665 -27.20747375 2.76345825 C-25.96449524 2.47970337 -24.72151672 2.19594849 -23.44087219 1.90359497 C-21.25791288 1.4044446 -19.07615244 0.90000539 -16.89595032 0.38894653 C-4.45161104 -2.43429124 -4.45161104 -2.43429124 0 0 Z " fill="#002B4F" transform="translate(801.1684112548828,229.18576049804688)"/>
<path d="M0 0 C1.04465927 -0.00953201 2.08931854 -0.01906403 3.16563416 -0.02888489 C4.28861404 -0.02797348 5.41159393 -0.02706207 6.56860352 -0.02612305 C7.72747574 -0.03040817 8.88634796 -0.0346933 10.08033752 -0.03910828 C12.53060249 -0.04485008 14.98088449 -0.04535295 17.43115234 -0.04101562 C21.17973922 -0.03785677 24.92753615 -0.06131402 28.67602539 -0.08666992 C31.05688377 -0.08894302 33.43774427 -0.08964636 35.81860352 -0.08862305 C36.93955917 -0.09783279 38.06051483 -0.10704254 39.21543884 -0.11653137 C40.26325027 -0.11030258 41.31106171 -0.10407379 42.390625 -0.09765625 C43.76818214 -0.09860039 43.76818214 -0.09860039 45.17356873 -0.0995636 C48.42958507 0.37153637 50.17198889 1.23703357 52.76000977 3.2746582 C55.34374493 7.58724169 56.13535482 10.7719947 56.13753319 15.77181911 C56.14535643 17.06830488 56.15317967 18.36479064 56.16123998 19.70056385 C56.15475434 21.13228126 56.14798439 22.56399741 56.14096069 23.99571228 C56.14441807 25.5220813 56.14918317 27.04844783 56.15514243 28.57480913 C56.16767135 32.76638903 56.16147345 36.95776414 56.15218377 41.1493448 C56.14540131 45.67090202 56.15587056 50.1924238 56.16412354 54.713974 C56.17747196 63.57088119 56.17457809 72.42771217 56.16588561 81.28462236 C56.15911341 88.48265279 56.15819034 95.68066184 56.16145706 102.87869453 C56.16191676 103.90274419 56.16237646 104.92679385 56.16285009 105.98187532 C56.16380926 108.062156 56.1647819 110.14243668 56.16576786 112.22271735 C56.17432512 131.73552652 56.16448258 151.24829342 56.14836676 170.76109565 C56.13496529 187.50579067 56.13728963 204.2504233 56.15112305 220.99511719 C56.16717639 240.43604436 56.173499 259.87693447 56.16428626 279.31786734 C56.1633306 281.39084692 56.16238749 283.46382651 56.16145706 285.53680611 C56.16099424 286.55677199 56.16053141 287.57673788 56.16005456 288.62761183 C56.15746378 295.81689957 56.1618376 303.00616382 56.16889572 310.19544792 C56.17730826 318.95701207 56.17503582 327.71849559 56.15905349 336.4800505 C56.15116718 340.9507678 56.14808531 345.42135064 56.15800095 349.89206696 C56.16694099 353.9848067 56.16202642 358.07728736 56.14606829 362.1700036 C56.14271753 363.65042093 56.14442121 365.13086014 56.15169565 366.61126339 C56.2145358 380.4623897 56.2145358 380.4623897 52.76000977 386.2746582 C48.3170003 390.57213028 42.16502724 389.72420709 36.36157227 389.70825195 C35.25325043 389.7134938 34.14492859 389.71873566 33.00302124 389.72413635 C30.66128374 389.73055244 28.31951399 389.72922494 25.9777832 389.72070312 C22.40460427 389.71220481 18.83303038 389.7409438 15.26000977 389.77270508 C12.98136441 389.77431756 10.70271623 389.77373866 8.42407227 389.77075195 C7.36032379 389.78198593 6.29657532 389.79321991 5.20059204 389.80479431 C-1.11640767 389.74579393 -5.26073016 389.32487825 -10.23999023 385.2746582 C-14.37131826 378.50202948 -13.66182752 371.13176576 -13.62767029 363.42662048 C-13.63184509 361.89867514 -13.63732341 360.37073289 -13.6439901 358.84279639 C-13.65844388 354.65155127 -13.65420024 350.46050281 -13.64682329 346.26924694 C-13.64209385 341.74635845 -13.65459936 337.22351264 -13.6648407 332.70063782 C-13.6820374 323.84353973 -13.68286704 314.98651255 -13.67762779 306.12940209 C-13.67358712 298.93186277 -13.67502843 291.73434442 -13.68037605 284.53680611 C-13.68112447 283.51260321 -13.6818729 282.48840032 -13.682644 281.43316098 C-13.68417546 279.3525561 -13.68571381 277.27195122 -13.68725897 275.19134635 C-13.70098672 255.68047337 -13.69554398 236.16964049 -13.68407375 216.65876842 C-13.67413716 198.80268092 -13.68708893 180.94669698 -13.71100795 163.09062546 C-13.73537881 144.75930292 -13.74501202 126.42802866 -13.73835522 108.09669024 C-13.73485902 97.80362057 -13.73712165 87.5106306 -13.75460625 77.21757317 C-13.7693029 68.45708636 -13.76999675 59.6967354 -13.75253534 50.93625133 C-13.74400273 46.465611 -13.74193081 41.9952136 -13.75718689 37.52458572 C-13.77097652 33.43310638 -13.76634519 29.34207941 -13.74694765 25.25062663 C-13.74316972 23.76958279 -13.74616103 22.28850321 -13.7565593 20.80749106 C-13.76968165 18.79563614 -13.75579095 16.78365919 -13.74056149 14.77181911 C-13.74045415 13.65391977 -13.74034681 12.53602042 -13.74023622 11.38424534 C-13.11931363 7.52451844 -11.62550851 5.33387473 -9.23999023 2.2746582 C-6.21510073 0.1382233 -3.65220311 0.01833868 0 0 Z " fill="#002C50" transform="translate(731.239990234375,388.725341796875)"/>
<path d="M0 0 C1.0046933 -0.00960754 2.0093866 -0.01921509 3.04452515 -0.02911377 C4.12891876 -0.03336365 5.21331238 -0.03761353 6.33056641 -0.04199219 C7.44646149 -0.04769226 8.56235657 -0.05339233 9.71206665 -0.05926514 C12.07414806 -0.06871553 14.43624267 -0.07524927 16.79833984 -0.07910156 C20.41087842 -0.08881008 24.02284882 -0.11983501 27.63525391 -0.15136719 C29.92952136 -0.157897 32.22379288 -0.16314756 34.51806641 -0.16699219 C35.59841156 -0.17933899 36.67875671 -0.19168579 37.7918396 -0.20440674 C47.26271521 -0.17629289 47.26271521 -0.17629289 51.05712891 3.16113281 C53.79011884 6.22378383 54.43240648 8.13061626 54.43465233 12.21524715 C54.44247557 13.24076276 54.45029881 14.26627836 54.45835912 15.32287019 C54.45166696 16.44785608 54.44497479 17.57284197 54.43807983 18.73191833 C54.44275981 19.92828905 54.44743978 21.12465976 54.45226157 22.35728413 C54.4621697 25.67943416 54.45858709 29.00107667 54.44930291 32.32319605 C54.44252561 35.9054132 54.45298713 39.48758543 54.46124268 43.0697937 C54.47459675 50.08812869 54.47169472 57.10636754 54.46300475 64.12470632 C54.45623465 69.82823798 54.45530857 75.53174266 54.4585762 81.23527718 C54.4590359 82.04647245 54.4594956 82.85766771 54.45996923 83.69344466 C54.46092839 85.34129087 54.46190103 86.98913708 54.462887 88.63698328 C54.47144594 104.09661366 54.46159916 119.55619071 54.4454859 135.01581234 C54.43208479 148.28408717 54.43440813 161.55228324 54.44824219 174.82055664 C54.46429348 190.22262289 54.47061925 205.62464237 54.4614054 221.02671582 C54.46044974 222.6688681 54.45950662 224.31102039 54.4585762 225.95317268 C54.45811338 226.76117348 54.45765055 227.56917428 54.4571737 228.40165995 C54.45458226 234.0985641 54.45895816 239.79543862 54.46601486 245.49233818 C54.47442517 252.43473912 54.47215976 259.37703828 54.45617263 266.31942754 C54.44828314 269.86232292 54.44520969 273.40504857 54.45512009 276.94794273 C54.46569521 280.78651256 54.45307599 284.62480386 54.43807983 288.46336365 C54.444772 289.58611881 54.45146416 290.70887398 54.45835912 291.86565202 C54.44662426 293.40783705 54.44662426 293.40783705 54.43465233 294.98117733 C54.43392174 296.31017367 54.43392174 296.31017367 54.4331764 297.66601843 C53.96963143 300.7416877 52.8398053 302.63461108 51.05712891 305.16113281 C48.02700993 307.27135563 45.45605378 307.41751906 41.81713867 307.43579102 C40.7724794 307.44532303 39.72782013 307.45485504 38.65150452 307.4646759 C37.52852463 307.4637645 36.40554474 307.46285309 35.24853516 307.46191406 C34.08966293 307.46619919 32.93079071 307.47048431 31.73680115 307.47489929 C29.28653619 307.48064109 26.83625418 307.48114397 24.38598633 307.47680664 C20.63739945 307.47364779 16.88960252 307.49710503 13.14111328 307.52246094 C10.7602549 307.52473404 8.3793944 307.52543738 5.99853516 307.52441406 C4.8775795 307.53362381 3.75662384 307.54283356 2.60169983 307.55232239 C1.5538884 307.5460936 0.50607697 307.53986481 -0.57348633 307.53344727 C-1.49185776 307.53407669 -2.41022919 307.53470612 -3.35643005 307.53535461 C-6.54551679 307.07393842 -8.3767723 306.09654586 -10.94287109 304.16113281 C-12.87629554 301.0860506 -13.19500072 298.70947918 -13.20293331 295.10981178 C-13.2099989 294.08491288 -13.21706449 293.06001397 -13.22434419 292.00405753 C-13.22192911 290.87975376 -13.21951403 289.75544999 -13.21702576 288.59707642 C-13.22226244 287.40141127 -13.22749911 286.20574612 -13.23289448 284.9738487 C-13.24531615 281.65374102 -13.24873763 278.333845 -13.24829757 275.01372862 C-13.24994504 271.43353556 -13.26301014 267.85338114 -13.27449036 264.27320862 C-13.29734379 256.44478045 -13.30526114 248.61637938 -13.3103168 240.78792238 C-13.31357303 235.90058647 -13.320095 231.01325843 -13.32731819 226.12592697 C-13.34688355 212.59599117 -13.36328847 199.06606269 -13.36619473 185.53611183 C-13.36638229 184.67025159 -13.36656986 183.80439135 -13.36676312 182.91229292 C-13.36712937 181.15696836 -13.36749307 179.40164379 -13.36785423 177.64631923 C-13.36803704 176.77496747 -13.36821985 175.90361572 -13.3684082 175.00585938 C-13.36858875 174.13344512 -13.3687693 173.26103086 -13.36895532 172.3621798 C-13.37249818 158.22089255 -13.39952779 144.07975747 -13.43690609 129.93852301 C-13.47496903 115.42221993 -13.49435205 100.90599241 -13.49465424 86.3896383 C-13.49523922 78.23823529 -13.50375736 70.08701384 -13.5326519 61.9356575 C-13.55713877 54.99581272 -13.56446696 48.05621574 -13.54940438 41.11633946 C-13.54222459 37.57522103 -13.54313793 34.03459221 -13.56581497 30.49352837 C-13.59016047 26.655186 -13.57579914 22.81754568 -13.55760193 18.97915649 C-13.5708019 17.85931417 -13.58400186 16.73947185 -13.59760183 15.58569491 C-13.50632331 7.18187427 -13.50632331 7.18187427 -10.59195042 3.48500633 C-7.03357736 0.36346564 -4.56835639 0.03527528 0 0 Z " fill="#002B4F" transform="translate(610.94287109375,470.8388671875)"/>
<path d="M0 0 C1.04465927 -0.0127597 2.08931854 -0.02551941 3.16563416 -0.03866577 C4.28861404 -0.04089142 5.41159393 -0.04311707 6.56860352 -0.04541016 C8.30691185 -0.05539536 8.30691185 -0.05539536 10.08033752 -0.06558228 C12.53059298 -0.07570513 14.98087599 -0.08039941 17.43115234 -0.08007812 C21.1799049 -0.08445212 24.92748106 -0.12078008 28.67602539 -0.15869141 C31.05688074 -0.1645594 33.43774168 -0.16852891 35.81860352 -0.17041016 C36.93955917 -0.18478119 38.06051483 -0.19915222 39.21543884 -0.21395874 C46.92487002 -0.1686852 46.92487002 -0.1686852 50.88134766 2.00683594 C55.10730421 7.14388566 55.04864832 12.06775776 55.02070618 18.43125916 C55.0264445 19.8156415 55.0264445 19.8156415 55.03229874 21.22799116 C55.04262069 24.32172972 55.0386381 27.4152824 55.03466797 30.5090332 C55.03901487 32.72661003 55.04419794 34.94418534 55.05015564 37.16175842 C55.06355883 43.18648335 55.06412286 49.21114559 55.06159234 55.23588252 C55.06052358 60.26339206 55.06540353 65.29088886 55.07019776 70.31839567 C55.08193222 82.85578471 55.08106523 95.39314328 55.07464095 107.93053246 C55.06947148 118.81582748 55.08072824 129.70103301 55.09973917 140.58631032 C55.1191159 151.76684473 55.12708243 162.94734653 55.12361592 174.12790018 C55.12180119 180.40353014 55.12445826 186.67907813 55.13833046 192.95469475 C55.15088562 198.85539788 55.14898651 204.75592162 55.13591957 210.65662193 C55.13354925 212.82299611 55.1363047 214.98938283 55.14454269 217.15574265 C55.1549731 220.11164175 55.14693907 223.06693478 55.13423157 226.02281189 C55.14160585 226.88127856 55.14898014 227.73974522 55.15657789 228.62422603 C55.11168045 233.58406637 54.51119478 236.99366786 51.76000977 241.29052734 C48.3408258 243.97343299 45.7986033 244.66727599 41.49829102 244.67871094 C40.47372803 244.68816742 39.44916504 244.6976239 38.39355469 244.70736694 C37.29760986 244.70129425 36.20166504 244.69522156 35.07250977 244.68896484 C33.36961792 244.69327011 33.36961792 244.69327011 31.63232422 244.69766235 C29.23510234 244.69970137 26.83786376 244.69418294 24.44067383 244.68164062 C20.77330285 244.66558554 17.107034 244.68149576 13.43969727 244.70068359 C11.10896567 244.69870113 8.77823476 244.6948574 6.44750977 244.68896484 C5.35156494 244.69503754 4.25562012 244.70111023 3.12646484 244.70736694 C1.58962036 244.69318222 1.58962036 244.69318222 0.02172852 244.67871094 C-0.87586182 244.67632416 -1.77345215 244.67393738 -2.69824219 244.67147827 C-5.82725249 244.20250993 -7.6884264 243.13878333 -10.23999023 241.29052734 C-12.89322517 237.31067494 -12.52048219 233.8586918 -12.50068665 229.2384491 C-12.50451219 228.30090217 -12.50833774 227.36335525 -12.51227921 226.39739782 C-12.52263373 223.24217048 -12.51861238 220.08712428 -12.51464844 216.93188477 C-12.51899361 214.67519461 -12.5241761 212.41850593 -12.53013611 210.16181946 C-12.5435597 204.02127766 -12.54410095 197.88079729 -12.54157281 191.74024367 C-12.54050517 186.61839211 -12.54538125 181.49655307 -12.55017823 176.37470418 C-12.56192114 163.600701 -12.56104175 150.82674236 -12.55462142 138.0527396 C-12.54945433 126.96038923 -12.56070097 115.86812674 -12.57971964 104.77579375 C-12.59909624 93.38739395 -12.60706276 81.99904783 -12.60359639 70.610627 C-12.60178128 64.21647821 -12.60444222 57.82240986 -12.61831093 51.42827415 C-12.63086599 45.4143316 -12.62896705 39.40056507 -12.61590004 33.38662529 C-12.61352949 31.17832633 -12.61628599 28.97001507 -12.62452316 26.76173019 C-12.63495187 23.74880017 -12.62692078 20.73646494 -12.61421204 17.72355652 C-12.62158632 16.84816182 -12.62896061 15.97276712 -12.63655835 15.07084531 C-12.59212366 10.0686055 -12.00987131 6.62958304 -9.23999023 2.29052734 C-6.26369246 0.11936357 -3.62211365 0.03009401 0 0 Z " fill="#002B50" transform="translate(492.239990234375,533.70947265625)"/>
<path d="M0 0 C1.02190933 -0.00428513 2.04381866 -0.00857025 3.09669495 -0.01298523 C5.2543158 -0.01871901 7.41195598 -0.01923582 9.56958008 -0.01489258 C12.86378064 -0.01173326 16.15708229 -0.03520205 19.45117188 -0.06054688 C21.55078012 -0.06282008 23.65039077 -0.06352327 25.75 -0.0625 C26.73141464 -0.07170975 27.71282928 -0.08091949 28.72398376 -0.09040833 C34.05254851 -0.05450277 37.84538223 0.28892846 42.44140625 3.30078125 C45.81850742 7.02723771 46.56627818 10.2761321 46.56838989 15.21238708 C46.57261963 16.73235039 46.57261963 16.73235039 46.57693481 18.28302002 C46.57389847 19.94974762 46.57389847 19.94974762 46.57080078 21.65014648 C46.57342926 23.40679375 46.57342926 23.40679375 46.57611084 25.19892883 C46.5797629 28.41434428 46.57889857 31.6297187 46.57573175 34.84513354 C46.57319763 38.21878314 46.57554913 41.59243001 46.57711792 44.96607971 C46.57893878 50.64137258 46.57653783 56.31665246 46.57177734 61.99194336 C46.56635846 68.52704623 46.56808035 75.0621178 46.57360375 81.59721988 C46.57816554 87.22205255 46.57876981 92.84687587 46.57616508 98.47170979 C46.57461604 101.82441955 46.57476984 105.17710305 46.57770157 108.52981377 C46.58026061 112.28218524 46.57634086 116.03449809 46.57080078 119.78686523 C46.57282501 120.87979889 46.57484924 121.97273254 46.57693481 123.0987854 C46.52048178 143.89336313 46.52048178 143.89336313 43.00390625 147.48828125 C39.50049216 149.96630585 37.77343181 150.43318714 33.53613281 150.49365234 C32.51457092 150.50971527 31.49300903 150.5257782 30.44049072 150.54232788 C25.76144027 150.58675866 21.08253241 150.62785006 16.40332031 150.65087891 C13.93577642 150.66743307 11.46828037 150.69471559 9.00097656 150.73291016 C5.44440819 150.78769255 1.88896481 150.809557 -1.66796875 150.82421875 C-3.3182608 150.85822281 -3.3182608 150.85822281 -5.00189209 150.89291382 C-13.55337587 150.86934706 -13.55337587 150.86934706 -17.23925781 147.89306641 C-20.45408744 144.29990209 -20.6858315 142.69286786 -20.7124939 137.9755249 C-20.72109436 136.84553574 -20.72969482 135.71554657 -20.73855591 134.55131531 C-20.74281586 133.30558243 -20.74707581 132.05984955 -20.75146484 130.77636719 C-20.75964233 129.46898087 -20.76781982 128.16159454 -20.77624512 126.81459045 C-20.80247195 122.47146671 -20.81777456 118.1283333 -20.83203125 113.78515625 C-20.83739088 112.29013309 -20.84276839 110.79511 -20.8481636 109.30008698 C-20.86979435 103.08071605 -20.88853061 96.86134773 -20.899786 90.6419487 C-20.91602189 81.72898799 -20.94918814 72.81646348 -21.00618684 63.90366721 C-21.04489673 57.63691824 -21.06441996 51.37028588 -21.06970656 45.1034205 C-21.07335899 41.36057568 -21.08536743 37.61819601 -21.1178093 33.87548065 C-21.15350303 29.69764815 -21.14951648 25.52075182 -21.14208984 21.34277344 C-21.15849518 20.10513748 -21.17490051 18.86750153 -21.19180298 17.59236145 C-21.12368913 8.24736383 -21.12368913 8.24736383 -18.15666199 4.57041931 C-12.51037114 -0.36210572 -7.20003301 -0.00667267 0 0 Z " fill="#012C50" transform="translate(381.55859375,627.69921875)"/>
<path d="M0 0 C-1.50223584 4.20626034 -4.28550034 5.73900021 -8 8 C-8.66 7.67 -9.32 7.34 -10 7 C-8.90536178 5.82438854 -7.79892814 4.6597511 -6.6875 3.5 C-6.07261719 2.8503125 -5.45773437 2.200625 -4.82421875 1.53125 C-3 0 -3 0 0 0 Z " fill="#051B3E" transform="translate(308,522)"/>
<path d="M0 0 C0.33 0.99 0.66 1.98 1 3 C-1.31 5.31 -3.62 7.62 -6 10 C-6.33 9.01 -6.66 8.02 -7 7 C-4.69 4.69 -2.38 2.38 0 0 Z " fill="#041B3F" transform="translate(401,521)"/>
<path d="M0 0 C0.33 0.99 0.66 1.98 1 3 C0.50628906 3.40992188 0.01257813 3.81984375 -0.49609375 4.2421875 C-1.13675781 4.78101563 -1.77742188 5.31984375 -2.4375 5.875 C-3.07558594 6.40867187 -3.71367187 6.94234375 -4.37109375 7.4921875 C-6.10805004 8.9222757 -6.10805004 8.9222757 -7 11 C-7.66 10.67 -8.32 10.34 -9 10 C-7.8758824 8.70756532 -6.75067408 7.41607925 -5.625 6.125 C-4.99851562 5.40570313 -4.37203125 4.68640625 -3.7265625 3.9453125 C-2.52573166 2.5923402 -1.2791655 1.2791655 0 0 Z " fill="#031435" transform="translate(421,499)"/>
<path d="M0 0 C-3.20336822 2.83374881 -5.78087253 3.5205537 -10 4 C-7.16124653 -0.25813021 -4.8137938 -0.13010254 0 0 Z " fill="#07183A" transform="translate(709,248)"/>
</svg>
